# xmcd
#
# Track frame offsets: 
#        150
#        18750
#        31500
#        42375
#        64950
#        82050
#        91575
#        104775
#        116250
#        130500
#        143325
#        154648
#        169500
#        182625
#        198363
#
# Disc length: 2786 seconds
#
# Revision: 6
# Processed by: cddbd v1.5.2PL0 Copyright (c) Steve Scherf et al.
# Submitted via: ExactAudioCopy v1.0b4
#
DISCID=af0ae00f
DTITLE=Various Artist - Chicago Blues Today Vol. 1
DYEAR=1966
DGENRE=Blues
TTITLE0=The Junior Wells Chicago Blue Band - The Junior Wells Chicago 
TTITLE0=Blue Band- Help Me (A Tribute to Sonny Boy Williamson)
TTITLE1=The Junior Wells Chicago Blue Band - The Junior Wells Chicago 
TTITLE1=Blue Band - It Hurts Me Too (When Things Go Wrong)
TTITLE2=The Junior Wells Chicago Blue Band - The Junior Wells Chicago 
TTITLE2=Blue Band - Messin' With The Kid
TTITLE3=The Junior Wells Chicago Blue Band - The Junior Wells Chicago 
TTITLE3=Blue Band - Vietcong Blues
TTITLE4=The Junior Wells Chicago Blue Band - The Junior Wells Chicago 
TTITLE4=Blue Band - All Night Long
TTITLE5=J.B. Hutto And His Hawks - J.B. Hutto And His Hawks - Going Ah
TTITLE5=ead
TTITLE6=J.B. Hutto And His Hawks - J.B. Hutto And His Hawks - Please H
TTITLE6=elp
TTITLE7=J.B. Hutto And His Hawks - J.B. Hutto And His Hawks - Too Much
TTITLE7=Alcohol
TTITLE8=J.B. Hutto And His Hawks - J.B. Hutto And His Hawks - Married 
TTITLE8=Woman Blues
TTITLE9=J.B. Hutto And His Hawks - J.B. Hutto And His Hawks - That's T
TTITLE9=he Truth
TTITLE10=Otis Spann's South Side Piano - Otis Spann's South Side Piano
TTITLE10=Marie
TTITLE11=Otis Spann's South Side Piano - Otis Spann's South Side Piano
TTITLE11=Burning Fire
TTITLE12=Otis Spann's South Side Piano - Otis Spann's South Side Piano
TTITLE12=S.P. Blues
TTITLE13=Otis Spann's South Side Piano - Otis Spann's South Side Piano
TTITLE13=Sometime I Wonder
TTITLE14=Otis Spann's South Side Piano - Otis Spann's South Side Piano
TTITLE14=Spann's Stomp
EXTD=
EXTT0=
EXTT1=
EXTT2=
EXTT3=
EXTT4=
EXTT5=
EXTT6=
EXTT7=
EXTT8=
EXTT9=
EXTT10=
EXTT11=
EXTT12=
EXTT13=
EXTT14=
PLAYORDER=
